Coordinates
version=1
nRows=27
nColumns=19
inDegrees=yes

Units are S.I. units (second, meters, Newtons, ...)
If the header above contains a line with 'inDegrees', this indicates whether rotational values are in degrees (yes) or radians (no).

endheader
time	pelvis_to_ground_rx	pelvis_to_ground_ry	pelvis_to_ground_rz	pelvis_to_ground_tx	pelvis_to_ground_ty	pelvis_to_ground_tz	left_hip_abduction	left_hip_rotation	left_hip_flexion	left_knee_flexion	left_ankle_flexion	left_subtalar_angle	right_hip_abduction	right_hip_rotation	right_hip_flexion	right_knee_flexion	right_ankle_flexion	right_subtalar_angle
      1.21000000	     96.50361208	      9.65895392	     -3.84682825	     -0.74214476	     -0.73954935	      0.73183619	    -13.96324422	     -8.38293952	     13.84737931	    -30.73312353	      4.70644459	    -10.66170052	      2.78015467	    -14.51914777	     27.99435617	    -62.68119682	     -5.89028527	    -11.05978652
      1.22000000	     96.22100328	     10.34479807	     -3.70897283	     -0.73346490	     -0.73948134	      0.73354021	    -13.54247499	     -9.11198389	     12.61174140	    -30.06963907	      4.53996476	    -10.48027926	      3.10641495	    -14.19428763	     29.20792750	    -61.51845139	     -5.59682055	    -11.34672608
      1.23000000	     95.99816392	     11.06790906	     -3.57655213	     -0.72485241	     -0.73946626	      0.73486094	    -13.19389940	     -9.70064017	     11.48519392	    -29.57237063	      4.38413977	    -10.29294445	      3.28069893	    -13.90408204	     30.35473327	    -60.18438789	     -5.34477772	    -11.60211666
      1.24000000	     95.85663741	     11.81412691	     -3.46612980	     -0.71629484	     -0.73948120	      0.73579890	    -12.93133074	    -10.16494633	     10.45467716	    -29.19747380	      4.23819235	    -10.08185051	      3.28370372	    -13.63809478	     31.44156136	    -58.67984621	     -5.13458002	    -11.81231637
      1.25000000	     95.78492441	     12.57402230	     -3.37115860	     -0.70776205	     -0.73950379	      0.73636638	    -12.74049312	    -10.50640662	      9.50625029	    -28.94160967	      4.13455189	     -9.85270142	      3.12898181	    -13.41216406	     32.44627317	    -56.98717258	     -5.00112756	    -11.91752453
      1.26000000	     95.78552475	     13.35620409	     -3.29233344	     -0.69921668	     -0.73953966	      0.73656739	    -12.61619707	    -10.74704548	      8.61833153	    -28.77722347	      4.08721837	     -9.62394455	      2.82366401	    -13.23747674	     33.35264671	    -55.10756231	     -4.95020825	    -11.89736584
      1.27000000	     95.86510131	     14.14244731	     -3.24047756	     -0.69062609	     -0.73956699	      0.73643041	    -12.56584700	    -10.94752146	      7.76516139	    -28.66210249	      4.08703548	     -9.34194413	      2.36743940	    -13.09074851	     34.14905839	    -53.03817351	     -4.97958205	    -11.73458359
      1.28000000	     95.97609796	     14.90980417	     -3.18550591	     -0.68193730	     -0.73959150	      0.73596559	    -12.53125607	    -10.92135228	      6.97988591	    -28.67154859	      4.38549775	     -8.41971652	      1.81841853	    -12.94890521	     34.79133508	    -50.77498862	     -5.18050945	    -10.85003844
      1.29000000	     96.17449283	     15.66677151	     -3.14563083	     -0.67310936	     -0.73956620	      0.73521377	    -12.59590998	    -11.09484665	      6.10876933	    -28.61257243	      4.52766436	     -8.25727996	      1.11641208	    -12.80945292	     35.26420332	    -48.34125268	     -5.23198929	    -10.60309947
      1.30000000	     96.37701507	     16.37818684	     -3.09345065	     -0.66409594	     -0.73952683	      0.73417844	    -12.65055110	    -11.09715327	      5.28093215	    -28.67190772	      4.92903109	     -7.84519516	      0.36363622	    -12.61136977	     35.54163116	    -45.74980723	     -5.70642687	     -9.63739750
      1.31000000	     96.59701886	     17.08114247	     -3.00382502	     -0.65482155	     -0.73946107	      0.73290196	    -12.73482020	    -11.20568853	      4.36688602	    -28.74255917	      5.30567464	     -7.47527852	     -0.44588389	    -12.41177557	     35.58248088	    -43.04826272	     -6.03988418	     -8.81219717
      1.32000000	     96.87355822	     17.71042420	     -2.88400872	     -0.64526794	     -0.73932477	      0.73139027	    -12.90536771	    -11.40843663	      3.34778936	    -28.80120651	      5.50644931	     -7.33035278	     -1.36799784	    -12.06787961	     35.38788470	    -40.31246149	     -6.31128485	     -8.36806753
      1.33000000	     97.09192775	     18.30143265	     -2.77660202	     -0.63538867	     -0.73919456	      0.72971360	    -12.99616825	    -11.52146207	      2.41344671	    -29.01047305	      6.25526870	     -6.64713560	     -2.22550440	    -11.65464941	     35.03529174	    -37.57027027	     -6.75958731	     -7.05408208
      1.34000000	     97.31893154	     18.81243413	     -2.54438358	     -0.62515318	     -0.73899345	      0.72784197	    -13.14359382	    -11.68672297	      1.30954026	    -29.24820811	      6.43335081	     -6.63094250	     -3.14614523	    -11.05296260	     34.38259985	    -34.94112649	     -7.15286184	     -6.68353323
      1.35000000	     97.49894662	     19.26785135	     -2.30418055	     -0.61456664	     -0.73877213	      0.72586784	    -13.25576272	    -11.87835516	      0.23694626	    -29.61228955	      6.69441592	     -6.62889897	     -4.00783668	    -10.31653706	     33.59014106	    -32.47647598	     -7.67031564	     -6.24101202
      1.36000000	     97.58745229	     19.68566119	     -2.08629224	     -0.60362951	     -0.73856800	      0.72385369	    -13.27084362	    -12.07585351	     -0.71731808	    -30.16361469	      7.18469345	     -6.59231890	     -4.72885174	     -9.49151430	     32.72568686	    -30.23256372	     -8.47459215	     -5.68579515
      1.37000000	     97.61903093	     20.01945571	     -1.79579335	     -0.59234982	     -0.73832821	      0.72179417	    -13.24251389	    -12.17646665	     -1.66409574	    -30.86841293	      7.35530175	     -6.53709146	     -5.36600188	     -8.49690542	     31.72605219	    -28.32184028	     -8.68273266	     -5.51625551
      1.38000000	     97.58662714	     20.26299068	     -1.55505508	     -0.58079510	     -0.73807980	      0.71977134	    -13.13090713	    -12.17551670	     -2.43038634	    -31.77572213	      7.47138084	     -6.50582512	     -5.87433456	     -7.33683751	     30.74678870	    -26.76870396	     -8.79812254	     -5.42535505
      1.39000000	     97.40395604	     20.47214842	     -1.28029857	     -0.56894185	     -0.73787042	      0.71784083	    -12.83855022	    -12.04726996	     -3.04636953	    -32.92173908	      7.56163918	     -6.41245218	     -6.12424364	     -6.17045781	     29.73555548	    -25.57169413	     -8.80096679	     -5.54483283
      1.40000000	     97.11660550	     20.60351006	     -1.05687941	     -0.55688019	     -0.73769525	      0.71603760	    -12.38245219	    -11.72534907	     -3.40672659	    -34.30956100	      7.48765732	     -6.24860992	     -6.16784985	     -4.91380175	     28.79187373	    -24.74388548	     -8.55179247	     -5.89344932
      1.41000000	     96.73572968	     20.66169265	     -0.90565757	     -0.54464999	     -0.73756500	      0.71441553	    -11.77561555	    -11.23550917	     -3.50163806	    -35.91069602	      7.19640785	     -5.91227115	     -6.01540859	     -3.57844483	     27.93321801	    -24.24879185	     -8.01061515	     -6.58013202
      1.42000000	     96.19128919	     20.68058400	     -0.74401798	     -0.53226592	     -0.73751356	      0.71296249	    -10.92152530	    -10.48323751	     -3.33803104	    -37.78574057	      6.73620013	     -5.65363084	     -5.55279994	     -2.35916429	     27.11782961	    -24.06178252	     -7.37526086	     -7.16655108
      1.43000000	     95.53545626	     20.62567962	     -0.63552626	     -0.51980318	     -0.73753289	      0.71174893	     -9.90029666	     -9.53612843	     -2.90817923	    -39.86069826	      6.05183758	     -5.33926984	     -4.87746185	     -1.11826979	     26.36496123	    -24.07929650	     -6.54622188	     -7.82041544
      1.44000000	     94.74305262	     20.52150610	     -0.53962028	     -0.50729796	     -0.73764304	      0.71077466	     -8.69492227	     -8.39522359	     -2.23643361	    -42.14489736	      5.20074668	     -5.02545433	     -3.95384965	      0.02954251	     25.64105779	    -24.23579620	     -5.65109488	     -8.43547417
      1.45000000	     93.83620247	     20.38840150	     -0.45131751	     -0.49480970	     -0.73783856	      0.71003484	     -7.34370919	     -7.08271389	     -1.33322583	    -44.63540602	      4.12159926	     -4.67767922	     -2.80021466	      0.95961832	     24.94161627	    -24.47915901	     -4.65990109	     -9.04609341
      1.46000000	     92.85433963	     20.18355780	     -0.38325723	     -0.48240233	     -0.73809484	      0.70952515	     -5.92070661	     -5.61589755	     -0.23096761	    -47.27976574	      2.87998304	     -4.35750790	     -1.48441448	      1.71272278	     24.27543159	    -24.76037765	     -3.67323312	     -9.56695886
      1.47000000	     91.80495880	     19.91141465	     -0.34512185	     -0.47013845	     -0.73840744	      0.70929642	     -4.46922253	     -4.06292474	      1.05418939	    -50.03987185	      1.54582491	     -4.11614437	     -0.05342373	      2.34642767	     23.60936885	    -24.96117167	     -2.75366489	     -9.95545536
